<svg version="1.1" id="Layer_1" xmlns="http://www.w3.org/2000/svg" xmlns:xlink="http://www.w3.org/1999/xlink" x="0px" y="0px"
	 width="100%" viewBox="0 0 364 364" enable-background="new 0 0 364 364" xml:space="preserve">
<path fill="#000000" opacity="1.000000" stroke="none" 
	d="
M210.000000,1.000002 
	C261.595276,1.000000 313.190552,1.000000 365.000000,1.000000 
	C365.000000,54.687370 365.000000,108.375031 364.622559,162.785339 
	C363.500580,160.069839 362.496674,156.664612 362.054962,153.187973 
	C359.732635,134.909790 353.155579,117.999222 345.787170,101.309372 
	C344.575195,98.564178 342.814209,97.904465 340.009033,97.942253 
	C329.352020,98.085808 318.691650,97.964394 308.033173,98.037437 
	C306.377625,98.048782 304.725525,98.557182 303.406036,98.779427 
	C340.899414,166.874344 333.984222,228.318817 278.896362,283.399109 
	C224.143021,326.306488 166.785965,329.391418 106.477921,294.185242 
	C106.477921,311.977753 106.477921,329.325500 106.477921,347.021881 
	C127.080414,355.803070 148.361206,362.720032 171.322174,363.083832 
	C172.557938,363.103394 173.774506,364.333435 175.000000,365.000000 
	C117.075813,365.000000 59.151634,365.000000 1.000000,365.000000 
	C1.000000,311.645996 1.000000,258.291656 1.416238,204.409363 
	C2.214891,204.723480 2.874570,205.545013 2.938701,206.410645 
	C4.171997,223.057526 9.881559,238.473007 16.030457,253.745468 
	C16.573118,255.093323 18.405693,256.830475 19.658592,256.846283 
	C36.115475,257.054016 52.575855,256.984467 69.183334,256.984467 
	C33.329536,192.795578 35.312561,130.981277 88.004799,78.669533 
	C140.571716,26.482203 202.290771,25.123411 265.993195,61.006287 
	C265.993195,48.365284 266.077942,35.716087 265.869843,23.071712 
	C265.847595,21.719282 264.415588,19.742439 263.134094,19.156557 
	C246.779907,11.679790 230.021774,5.407001 212.066528,2.899633 
	C211.304123,2.793168 210.685562,1.656662 210.000000,1.000002 
M107.110527,262.441040 
	C117.695885,273.583984 130.815964,280.739990 144.868622,286.418793 
	C161.971100,293.329987 179.954651,295.778412 198.027786,293.729218 
	C216.528625,291.631531 234.034897,285.794434 249.932983,275.207306 
	C261.929962,267.218079 271.874298,257.480774 280.396606,246.108322 
	C290.591919,232.503326 297.103241,217.292068 300.277252,200.531677 
	C303.111389,185.566116 303.151367,170.485870 300.594055,155.725571 
	C297.601166,138.451050 290.572601,122.372116 279.600433,108.515396 
	C276.101776,104.096977 273.816742,97.142311 265.999908,97.054840 
	C266.274109,91.154854 261.472107,89.085129 257.762421,86.254135 
	C233.020447,67.372643 205.310486,58.750507 174.119583,61.980152 
	C152.030090,64.267395 132.179596,72.106110 114.745171,85.820641 
	C88.593864,106.392204 73.498383,133.496277 70.223885,166.404861 
	C67.299919,195.790619 75.000374,222.951340 92.652657,246.807785 
	C95.911690,251.212250 98.399704,257.839355 106.000282,257.879028 
	C106.389046,259.166260 106.777809,260.453491 107.110527,262.441040 
z"/>
<path fill="#C49A6C" opacity="1.000000" stroke="none" 
	d="
M175.466858,365.000000 
	C173.774506,364.333435 172.557938,363.103394 171.322174,363.083832 
	C148.361206,362.720032 127.080414,355.803070 106.477921,347.021881 
	C106.477921,329.325500 106.477921,311.977753 106.477921,294.185242 
	C166.785965,329.391418 224.143021,326.306488 278.896362,283.399109 
	C333.984222,228.318817 340.899414,166.874344 303.406036,98.779427 
	C304.725525,98.557182 306.377625,98.048782 308.033173,98.037437 
	C318.691650,97.964394 329.352020,98.085808 340.009033,97.942253 
	C342.814209,97.904465 344.575195,98.564178 345.787170,101.309372 
	C353.155579,117.999222 359.732635,134.909790 362.054962,153.187973 
	C362.496674,156.664612 363.500580,160.069839 364.622559,163.253998 
	C365.000000,175.354233 365.000000,187.708450 364.615662,200.287445 
	C363.491302,204.279999 362.537872,208.020248 362.047394,211.820267 
	C359.626465,230.576965 353.206360,248.107452 344.888519,264.862213 
	C335.965820,282.835419 324.036377,298.905090 309.542114,312.781219 
	C294.699127,326.991150 277.998993,338.847809 259.176971,347.272552 
	C238.531982,356.513245 217.057846,362.770721 194.172989,363.084808 
	C193.106766,363.099457 192.057281,364.333740 191.000000,365.000000 
	C185.977905,365.000000 180.955811,365.000000 175.466858,365.000000 
z"/>
<path fill="#085797" opacity="1.000000" stroke="none" 
	d="
M209.531342,1.000002 
	C210.685562,1.656662 211.304123,2.793168 212.066528,2.899633 
	C230.021774,5.407001 246.779907,11.679790 263.134094,19.156557 
	C264.415588,19.742439 265.847595,21.719282 265.869843,23.071712 
	C266.077942,35.716087 265.993195,48.365284 265.993195,61.006287 
	C202.290771,25.123411 140.571716,26.482203 88.004799,78.669533 
	C35.312561,130.981277 33.329536,192.795578 69.183334,256.984467 
	C52.575855,256.984467 36.115475,257.054016 19.658592,256.846283 
	C18.405693,256.830475 16.573118,255.093323 16.030457,253.745468 
	C9.881559,238.473007 4.171997,223.057526 2.938701,206.410645 
	C2.874570,205.545013 2.214891,204.723480 1.416238,203.940704 
	C1.000000,189.645767 1.000000,175.291550 1.416206,160.527954 
	C2.208650,159.443604 2.800765,158.806564 2.927216,158.087646 
	C4.007612,151.945129 4.766169,145.737061 6.068002,139.644089 
	C10.485881,118.967133 19.030252,99.874130 30.544306,82.351639 
	C41.489532,65.694801 54.478012,50.431641 70.916718,38.869400 
	C82.541817,30.692839 94.591629,22.789211 107.361664,16.659019 
	C121.824425,9.716243 137.233078,4.660285 153.433472,2.852328 
	C154.017288,2.787174 154.480560,1.641892 155.000000,1.000002 
	C173.020889,1.000000 191.041794,1.000000 209.531342,1.000002 
z"/>
<path fill="#000000" opacity="1.000000" stroke="none" 
	d="
M191.468658,365.000000 
	C192.057281,364.333740 193.106766,363.099457 194.172989,363.084808 
	C217.057846,362.770721 238.531982,356.513245 259.176971,347.272552 
	C277.998993,338.847809 294.699127,326.991150 309.542114,312.781219 
	C324.036377,298.905090 335.965820,282.835419 344.888519,264.862213 
	C353.206360,248.107452 359.626465,230.576965 362.047394,211.820267 
	C362.537872,208.020248 363.491302,204.279999 364.615662,200.756104 
	C365.000000,255.595840 365.000000,310.191681 365.000000,365.000000 
	C307.312622,365.000000 249.624969,365.000000 191.468658,365.000000 
z"/>
<path fill="#000000" opacity="1.000000" stroke="none" 
	d="
M154.531342,1.000002 
	C154.480560,1.641892 154.017288,2.787174 153.433472,2.852328 
	C137.233078,4.660285 121.824425,9.716243 107.361664,16.659019 
	C94.591629,22.789211 82.541817,30.692839 70.916718,38.869400 
	C54.478012,50.431641 41.489532,65.694801 30.544306,82.351639 
	C19.030252,99.874130 10.485881,118.967133 6.068002,139.644089 
	C4.766169,145.737061 4.007612,151.945129 2.927216,158.087646 
	C2.800765,158.806564 2.208650,159.443604 1.416206,160.059296 
	C1.000000,107.074158 1.000000,54.148315 1.000000,1.000000 
	C52.020679,1.000000 103.041679,1.000000 154.531342,1.000002 
z"/>
<path fill="#085797" opacity="1.000000" stroke="none" 
	d="
M106.000076,257.166626 
	C98.399704,257.839355 95.911690,251.212250 92.652657,246.807785 
	C75.000374,222.951340 67.299919,195.790619 70.223885,166.404861 
	C73.498383,133.496277 88.593864,106.392204 114.745171,85.820641 
	C132.179596,72.106110 152.030090,64.267395 174.119583,61.980152 
	C205.310486,58.750507 233.020447,67.372643 257.762421,86.254135 
	C261.472107,89.085129 266.274109,91.154854 265.743042,97.568512 
	C265.268585,98.388229 265.050964,98.694275 264.375549,99.000320 
	C212.035217,99.000328 160.152725,99.000328 108.000412,99.000328 
	C108.000412,151.892838 108.000412,203.863098 107.726593,255.964264 
	C106.968536,256.452332 106.484306,256.809479 106.000076,257.166626 
z"/>
<path fill="#C49A6C" opacity="1.000000" stroke="none" 
	d="
M264.833344,99.000320 
	C265.050964,98.694275 265.268585,98.388229 265.743286,97.957733 
	C273.816742,97.142311 276.101776,104.096977 279.600433,108.515396 
	C290.572601,122.372116 297.601166,138.451050 300.594055,155.725571 
	C303.151367,170.485870 303.111389,185.566116 300.277252,200.531677 
	C297.103241,217.292068 290.591919,232.503326 280.396606,246.108322 
	C271.874298,257.480774 261.929962,267.218079 249.932983,275.207306 
	C234.034897,285.794434 216.528625,291.631531 198.027786,293.729218 
	C179.954651,295.778412 161.971100,293.329987 144.868622,286.418793 
	C130.815964,280.739990 117.695885,273.583984 107.452660,261.762360 
	C109.096031,260.417816 110.345642,259.329559 111.707924,259.163025 
	C116.319565,258.599274 120.970596,258.055420 125.607506,258.047485 
	C171.404907,257.968964 217.202469,258.000000 263.219360,258.126099 
	C263.922363,257.486176 264.406006,256.720093 264.936279,255.490326 
	C264.988586,223.785965 265.015839,192.545303 264.992432,161.304672 
	C264.976868,140.536530 264.888916,119.768440 264.833344,99.000320 
z"/>
<path fill="#C49A6C" opacity="1.000000" stroke="none" 
	d="
M263.000000,258.000000 
	C217.202469,258.000000 171.404907,257.968964 125.607506,258.047485 
	C120.970596,258.055420 116.319565,258.599274 111.707924,259.163025 
	C110.345642,259.329559 109.096031,260.417816 107.480682,261.412201 
	C106.777809,260.453491 106.389046,259.166260 106.000183,257.522827 
	C106.484306,256.809479 106.968536,256.452332 108.191116,256.034546 
	C138.848114,255.982651 168.766785,255.972977 198.685410,256.006195 
	C220.123581,256.029999 241.561676,256.111206 262.999908,256.472351 
	C263.000000,257.185242 263.000000,257.592621 263.000000,258.000000 
z"/>
<path fill="#000000" opacity="1.000000" stroke="none" 
	d="
M262.999817,256.166809 
	C241.561676,256.111206 220.123581,256.029999 198.685410,256.006195 
	C168.766785,255.972977 138.848114,255.982651 108.464935,255.903656 
	C108.000412,203.863098 108.000412,151.892838 108.000412,99.000328 
	C160.152725,99.000328 212.035217,99.000328 264.375549,99.000320 
	C264.888916,119.768440 264.976868,140.536530 264.992432,161.304672 
	C265.015839,192.545303 264.988586,223.785965 264.619019,255.511780 
	C263.836700,256.053558 263.418274,256.110199 262.999817,256.166809 
z"/>
<path fill="#C49A6C" opacity="1.000000" stroke="none" 
	d="
M262.999908,256.472351 
	C263.418274,256.110199 263.836700,256.053558 264.572418,255.975494 
	C264.406006,256.720093 263.922363,257.486176 263.219360,258.126099 
	C263.000000,257.592621 263.000000,257.185242 262.999908,256.472351 
z"/>
</svg>